<svg width="166" height="41" viewBox="0 0 166 41" fill="none" xmlns="http://www.w3.org/2000/svg">
<path d="M40.7593 4.684H50.9833C54.7753 4.684 57.2493 4.852 59.3913 7.194C60.8753 8.868 61.6993 10.876 61.6993 13.22C61.6993 15.562 60.8753 17.572 59.2273 19.244C57.5773 20.918 55.4353 21.924 49.9933 21.924H45.0493V35.814H40.7613V4.684H40.7593ZM45.0473 18.408H49.9933C52.7973 18.408 57.0833 18.24 57.0833 13.052C57.0833 8.198 53.1253 8.198 50.8173 8.198H45.0493V18.408H45.0473ZM75.3853 35.814C75.0553 34.81 75.0553 33.638 75.0553 32.634C73.0753 36.148 70.2753 36.484 68.4593 36.484C63.5133 36.484 60.8753 33.638 60.8753 30.124C60.8753 28.45 61.5353 25.604 64.6673 23.764C66.9753 22.424 70.2733 22.424 72.0873 22.424C73.0773 22.424 73.7353 22.424 74.8913 22.592C74.8913 19.914 74.8913 18.742 74.0653 17.738C73.2413 16.734 71.5933 16.398 70.4393 16.398C66.4813 16.398 66.1513 19.246 66.1513 20.082H62.1953C62.3593 18.91 62.5253 17.404 63.6793 16.066C65.3273 14.226 68.2953 13.722 70.6033 13.722C73.7353 13.722 77.0333 14.726 78.1873 16.902C78.8473 18.242 78.8473 19.246 78.8473 20.25L78.6833 30.626C78.6833 30.96 78.6833 33.806 79.0133 35.982H75.3853V35.814ZM72.5813 25.1C70.9333 25.1 64.8333 25.1 64.8333 29.452C64.8333 30.792 65.6573 33.134 69.2853 33.134C71.2633 33.134 72.9113 32.298 73.9013 30.79C74.7253 29.284 74.8913 28.114 74.8913 25.1C74.2313 25.268 73.5713 25.1 72.5813 25.1ZM82.3093 4.684H86.2673V35.814H82.3093V4.684ZM103.415 35.814C103.085 34.81 103.085 33.638 103.085 32.634C101.105 36.148 98.3053 36.484 96.4893 36.484C91.5433 36.484 88.9053 33.638 88.9053 30.124C88.9053 28.45 89.5653 25.604 92.6973 23.764C95.0053 22.424 98.3033 22.424 100.117 22.424C101.107 22.424 101.765 22.424 102.921 22.592C102.921 19.914 102.921 18.742 102.095 17.738C101.271 16.734 99.6233 16.398 98.4693 16.398C94.5113 16.398 94.1813 19.246 94.1813 20.082H90.2253C90.3893 18.91 90.5533 17.404 91.7093 16.066C93.3573 14.226 96.3253 13.722 98.6333 13.722C101.765 13.722 105.063 14.726 106.217 16.902C106.877 18.242 106.877 19.246 106.877 20.25L106.713 30.626C106.713 30.96 106.713 33.806 107.043 35.982H103.415V35.814ZM100.775 25.102C99.1273 25.102 93.0273 25.102 93.0273 29.454C93.0273 30.794 93.8513 33.136 97.4793 33.136C99.4593 33.136 101.107 32.3 102.095 30.792C102.921 29.286 103.085 28.116 103.085 25.102C102.261 25.27 101.765 25.102 100.777 25.102H100.775ZM110.505 16.734V14.224H114.461V17.738C114.957 16.902 116.441 13.89 121.221 13.89C123.201 13.89 128.971 14.558 128.971 21.254V35.982H124.849V22.258C124.849 20.918 124.685 19.578 123.695 18.576C122.705 17.572 121.221 17.07 119.903 17.07C116.935 17.07 114.297 19.244 114.297 23.596V35.982H110.339V16.734H110.505ZM130.291 14.224H134.083V9.538L138.039 8.198V14.058H142.821V17.07H138.041V29.956C138.041 30.96 138.041 32.802 140.841 32.802C141.667 32.802 142.491 32.634 142.821 32.634V35.814C142.161 35.982 141.007 36.148 139.523 36.148C135.731 36.148 134.083 34.976 134.083 31.462V17.068H130.289V14.224H130.291ZM145.623 4.684H150.405V9.204H145.625V4.684H145.623ZM145.953 14.224H149.911V35.814H145.953V14.224ZM153.703 18.576C153.703 17.07 153.539 15.562 153.539 14.224H157.495L157.661 18.408C158.485 15.396 160.957 14.392 162.771 14.224C163.7 14.098 164.638 14.0418 165.575 14.056V18.074C165.409 18.074 165.079 17.906 164.751 17.906H163.595C158.815 17.906 157.825 20.75 157.825 24.432V35.98H153.869V18.574H153.703V18.576ZM16.1933 0.5C7.9493 0.5 1.1893 7.362 1.1893 15.73C1.1893 24.098 7.9493 30.96 16.1933 30.96C24.4373 30.96 31.1973 24.1 31.1973 15.73C31.1973 7.362 24.4373 0.5 16.1933 0.5ZM16.1933 26.274C10.4213 26.274 5.8053 21.588 5.8053 15.73C5.8053 9.872 10.4213 5.186 16.1933 5.186C21.9633 5.186 26.5813 9.872 26.5813 15.73C26.4153 21.588 21.7993 26.274 16.1933 26.274ZM29.5473 29.622L16.1933 35.478L2.8373 29.622L0.529297 33.806L16.1933 40.5L31.8573 33.806L29.5473 29.622Z" fill="#7284A3"/>
</svg>
