<svg width="136" height="32" viewBox="0 0 136 32" fill="none" xmlns="http://www.w3.org/2000/svg">
<path d="M87.7924 11.9112C85.5114 9.84784 82.7573 8.8392 79.5737 8.8392C76.4335 8.8392 73.6794 9.84912 71.3972 11.9112C69.1162 13.9298 67.9565 16.7394 67.9565 20.3387C67.9565 23.9381 69.1162 26.7451 71.3972 28.8085C73.6781 30.827 76.4335 31.837 79.5737 31.837C82.7573 31.837 85.5114 30.827 87.7924 28.8085C90.1168 26.7451 91.2765 23.9368 91.2765 20.3387C91.2765 16.7406 90.1156 13.9298 87.7924 11.9112ZM75.2725 24.9454C74.0694 23.7614 73.4633 22.2242 73.4633 20.3374C73.4633 18.4507 74.0643 16.9147 75.2725 15.773C75.8328 15.2036 76.5029 14.7544 77.2421 14.4527C77.9814 14.151 78.7742 14.0031 79.5724 14.0181C80.3772 14.003 81.1769 14.1506 81.9234 14.4522C82.6699 14.7537 83.348 15.2029 83.917 15.773C85.1623 16.9147 85.7684 18.4494 85.7684 20.3374C85.7684 22.2254 85.1675 23.7602 83.917 24.9454C82.7139 26.0859 81.2499 26.6568 79.5724 26.6568C78.7784 26.6695 77.9897 26.5248 77.2517 26.2311C76.5138 25.9374 75.8411 25.5004 75.2725 24.9454ZM99.4134 31.2213V1.10544H93.9922V31.2213H99.4134ZM116.911 9.4536V21.4702C116.911 24.3656 115.376 26.2856 112.456 26.2856C109.486 26.2856 107.993 24.3682 107.993 21.4702V9.4536H102.561V22.3918C102.561 27.4043 105.659 31.8357 112.456 31.8357H112.498C119.253 31.8357 122.346 27.3058 122.346 22.3918V9.4536H116.911ZM62.1875 9.4536L56.7664 24.1992L51.3452 9.4536H45.5801L54.2309 31.2226H59.3095L67.9591 9.4536H62.1875ZM45.6056 19.723C45.6056 16.564 44.6173 13.9746 42.6803 11.9112C40.7432 9.84784 38.2513 8.8392 35.1955 8.8392C32.0553 8.8392 29.3856 9.93744 27.1915 12.0866C25.0384 14.2382 23.9657 16.9582 23.9657 20.3374C23.9657 23.7166 25.041 26.4827 27.1494 28.6318C29.3025 30.7835 31.8839 31.8357 34.9385 31.8357C39.6308 31.8357 42.9424 29.7288 44.9612 25.4715L40.9184 23.101C39.5874 25.7774 37.6478 27.0946 35.0241 27.0946C31.7983 27.0946 29.5173 24.9877 29.1721 21.6533H45.6044V19.7218L45.6056 19.723ZM35.0203 13.0517C38.0748 13.0517 40.0988 14.8066 40.6141 17.6162H29.1695C29.9891 15.0267 32.224 13.0517 35.0216 13.0517H35.0203ZM23.9644 31.2213L16.6906 18.2318C21.2922 16.5205 23.5732 13.5368 23.5732 9.1912C23.5783 3.88048 19.4446 0.5 12.8625 0.5H0V31.2213H5.67945V18.7579H10.4997L17.468 31.2226L23.9644 31.2213ZM12.8625 5.59056C16.2188 5.59056 17.8976 6.9512 17.8976 9.62768C17.8976 12.3042 16.2175 13.6648 12.8625 13.6648H5.67945V5.59056H12.8625ZM131.536 31.8357C128.047 31.8357 125.218 28.948 125.218 25.3845V3.572H130.639V9.46128H135.288V13.9374H130.639V25.0286C130.639 26.0731 131.469 26.9192 132.494 26.9192H135.288V31.8357H131.536Z" fill="#7284A3"/>
</svg>
